<?xml version="1.0" encoding="UTF-8"?>
<!DOCTYPE svg PUBLIC "-//W3C//DTD SVG 1.0//EN" "http://www.w3.org/TR/2001/REC-SVG-20010904/DTD/svg10.dtd">
<!-- Creator: CorelDRAW 2019 (64 Bit) -->
<svg xmlns="http://www.w3.org/2000/svg" xml:space="preserve" width="179.539mm" height="56.3361mm" version="1.0" style="shape-rendering:geometricPrecision; text-rendering:geometricPrecision; image-rendering:optimizeQuality; fill-rule:evenodd; clip-rule:evenodd"
viewBox="0 0 6651.78 2087.2"
 xmlns:xlink="http://www.w3.org/1999/xlink"
 xmlns:xodm="http://www.corel.com/coreldraw/odm/2003">
 <defs>
  <style type="text/css">
   <![CDATA[
    .fil0 {fill:#000000}
   ]]>
  </style>
 </defs>
 <g id="Camada_x0020_1">
  <metadata id="CorelCorpID_0Corel-Layer"/>
  <g id="_2608244394352">
   <g>
    <path class="fil0" d="M2305.12 712.08c-25.88,0 -29.07,-5.55 -52.56,-7.51 7.47,11.15 5.05,6.72 14.11,15.92 15.06,15.32 38.45,38.76 38.45,74.19 0,84.49 13.2,325.73 -14.89,368.06 -7.11,10.72 -6.27,7.36 -13.95,16.09 -20.41,23.19 -4.71,-10.43 -16.21,21.34l292.86 0c-16.35,-24.43 -45.06,-42.07 -45.06,-82.61l0 -232.78c0,-113.14 157.7,-104.65 157.7,-22.53l0 255.3c0,40.54 -28.7,58.18 -45.05,82.61l292.85 0c-39.88,-59.56 -45.79,-30.03 -45.11,-135.11 0.4,-62.6 -0.26,-125.24 0.1,-187.84 0.69,-119.34 -32.2,-195.18 -172.76,-195.18 -35.96,0 -81.33,7.46 -110.27,17.38 -44.64,15.3 -46.73,29.62 -77.46,50.21l0 -75.09c-46.17,22.16 -133.43,37.55 -202.74,37.55z"/>
    <path class="fil0" d="M3228.75 509.33c26.76,39.97 45.06,38.32 45.06,112.64 0,90.58 7.62,450.37 -9.25,516.4 -10.54,41.24 -25.98,25 -35.8,61.81l292.85 0c-46.79,-69.86 -45.39,-17.14 -45.06,-142.67l0.01 -585.72c-66.23,31.78 -148.61,37.54 -247.8,37.54z"/>
    <path class="fil0" d="M2913.37 704.57c16.29,24.31 52.56,37.18 52.56,82.6l0 337.91c0,40.08 -27.27,48.54 -45.05,75.09l292.85 0c-63.19,-94.38 -45.06,-71.76 -45.06,-240.3 0,-95.11 0,-190.23 0,-285.35 -65.58,31.47 -157.11,30.04 -255.31,30.04z"/>
    <path class="fil0" d="M240.19 620.59l-232.53 -0.67c-0.23,131.07 -14.18,1428.47 -3.86,1455.5 4.03,10.54 212.01,4.31 238.18,4.67 -9.76,-78.93 -19.34,-265.32 -15.47,-427.17 4.62,-193.18 -16.37,-213 155.36,-210.15 164.04,0.65 218.52,620.53 360.32,638.51 39.78,5.03 156.58,9.3 188.21,2.03 36.47,-8.38 51.39,-34.09 8,-103.49 -119.27,-190.78 -253.57,-382.31 -321.36,-605.97 -15.49,-51.09 12.82,-67.32 33.09,-89.44 117.36,-128.01 215.4,-365.97 287.01,-650.18 -35.84,-22.61 -155.47,-36.46 -202.11,-13.64 -55.94,27.37 -101.9,395.9 -236.15,536.09 -61.33,64.04 -127.36,69.64 -214.84,63.09 -33.47,-2.51 -57,-50.08 -61.84,-141.69 -8.74,-165.09 14.58,-403.41 17.99,-457.5z"/>
    <path class="fil0" d="M1907.15 2071.22c99.2,0 129.14,-4.99 206.03,-64.3 21.42,-16.52 25.98,-27.09 49.28,-33.31 13.97,52.33 115.14,97.61 165.19,97.61 134.78,0 60.45,0.13 157.69,-22.53l0 30.04 165.2 0 0 -548.16c32.04,-2.66 35.55,-12.36 67.58,-15.02l0 -150.19 -232.78 0 0 488.1c-44.74,10.42 -210.25,99.67 -210.25,-195.23l0 -97.62c0,-79.43 22.53,-131.62 22.53,-202.75l-172.72 0c-3.49,41.98 -17.1,85.38 -23.87,133.82 -16.78,120.17 -13.67,137.57 -13.67,256.66 0,41.68 7.51,44.52 7.51,82.6 -47.68,25.23 -75.62,45.06 -135.16,45.06 -185.35,0 -90.11,-480.79 -90.11,-518.13l-172.72 0c-29.22,125.45 -57.4,299.2 -34.68,447.67 19.71,128.73 103.11,265.69 244.94,265.69z"/>
    <path class="fil0" d="M1006.05 832.22c0,129.63 28.79,219.94 128.58,299.43 150.95,120.27 441.78,101.91 487.88,61.73 12.69,-11.06 61.83,-114.27 66.86,-135.89 23.43,17.17 12.17,25.66 23.31,59.29 22.5,67.93 86.41,98.4 164.41,98.4 66.68,0 58.45,-28.01 120.15,-120.15 -57.45,0 -120.13,0.99 -109.28,-57.81 6.6,-35.74 74.45,-54.22 109.28,-62.33 0,53.72 1.9,129.03 13.48,166.73 24.72,80.4 165.7,105.28 213.52,30.24 16.29,-25.59 48.19,-60.03 50.84,-91.84 -37.73,0 -38.95,-0.83 -67.58,-7.51 -17.5,-210.26 41.67,-367.94 -180.22,-367.94 -198.44,0 -176.81,15.45 -223.16,77.2 -15.25,20.3 -33.02,40.61 -39.66,65.47 42.13,-9.81 232.78,-88.44 232.78,7.51 0,27.07 -30.67,27.15 -57.99,32.12 -21.62,3.93 -48.2,8.63 -74.15,15.95 -45.12,12.74 -92.23,31.64 -121.6,58.62 -5.26,4.83 -17.69,17.51 -21.83,23.23 -20.54,28.31 -10.41,40.84 -67.03,68.14 -171.64,82.77 -430.84,26.33 -430.84,-205.56 0,-152.69 70.29,-247.8 225.27,-247.8 66.01,0 127.98,36.4 172.71,60.08l0 -150.19c-102.53,-8.53 -78.79,-22.53 -202.74,-22.53 -159.91,0 -304.23,60.84 -373.13,190.06 -21.42,40.19 -39.87,96.71 -39.87,155.36z"/>
    <path class="fil0" d="M1389.02 1575.62l0 307.88c-45.44,3.78 -17.73,15.01 -105.12,15.01 -213.34,0 -275.18,-524.12 105.12,-322.89zm-473.07 90.11c0,204.89 132.62,420.52 315.38,420.52 65.45,0 98.47,1.29 157.69,-30.04l0 22.53c262.72,0 217.76,40.91 217.76,-150.18 -24.52,-2.05 -52.56,-4.39 -52.56,-30.04l0 -533.15 -165.2 0 0 52.57c-199.16,-133.36 -473.07,-28.32 -473.07,247.8z"/>
    <path class="fil0" d="M2973.44 1688.26c0,-43.8 2.77,-70.89 26.57,-108.59 72.68,-115.14 221.91,-10.88 251.27,-4.05l0 300.37c-147.07,77.82 -277.84,-46.39 -277.84,-187.73zm-195.23 -52.56l0 75.09c0,173.67 145.21,375.46 315.38,375.46l45.06 0c87.2,0 33.06,-28.68 121.33,-9.31 9.99,2.19 17.97,2.15 28.28,2.33l129.1 0.33c35.52,-0.26 38.35,5.38 44.29,-23.28 3.35,-16.18 -0.1,-104.25 -0.1,-127.76 -22.67,-5.28 -45.06,-4.35 -45.06,-30.04l0 -533.15 -165.19 0 0 52.57c-94.44,-49.97 -192.54,-84.53 -315.51,-30.17 -77.52,34.28 -157.57,136.5 -157.57,247.93z"/>
    <path class="fil0" d="M3514.09 1387.89c0,110.55 -17.05,135.63 67.58,142.68l0 548.16c263.65,0 217.76,38.26 217.76,-150.18 -25.46,-5.93 -52.56,-2.77 -52.56,-30.04l0 -533.15 -210.26 0c-17.3,0 -22.53,5.23 -22.53,22.53z"/>
    <path class="fil0" d="M3867.02 1515.55c32.04,2.66 35.54,12.36 67.58,15.02l0 548.16c240.8,0 219.43,17.16 218.2,-59.63 -0.48,-30.22 -0.44,-60.31 -0.44,-90.54 -24.53,-2.05 -52.57,-4.39 -52.57,-30.04l0 -533.15c-256.46,0 -234.45,-18.05 -233.22,59.63 0.48,30.23 0.44,60.31 0.44,90.55z"/>
    <path class="fil0" d="M3912.07 1200.17c0,170.5 195.24,124.19 195.24,-37.55 0,-161.87 -195.24,-119.88 -195.24,37.55z"/>
    <path class="fil0" d="M3559.15 1207.68c0,144.04 195.23,138.75 195.23,-60.07 0,-136.09 -195.23,-111.01 -195.23,60.07z"/>
    <path class="fil0" d="M2965.92 576.91c0,123.18 210.26,160.63 210.26,-15.01 0,-113.84 -210.26,-123.03 -210.26,15.01z"/>
   </g>
   <g>
    <path class="fil0" d="M3897.27 278.26c41.53,78.5 159.67,213.86 232.78,262.82 21.25,-11.24 29.32,-20.51 46.26,-28.83 138.61,-74.81 195.87,187.09 6.49,132.57 -20.65,188.61 -195.43,174.08 -195.43,68.97 0,-93.83 80.22,-58.7 -114.51,-253.43 -15.53,-15.53 -58.38,-62.86 -73.12,-69.82 -31.97,-15.12 -156.91,52.5 -203.08,-14.4 -31.64,-45.83 -27.51,-116.88 19.18,-146.51 50.01,-34.7 103.97,-27.66 130.99,-15.96 -2.95,-47.01 34.37,-123.13 120.39,-123.13 55.76,0 154.29,104.52 30.03,187.72zm-375.45 22.53c0,145.11 107.9,157.7 202.75,157.7 64.83,0 47.22,-26.84 92.19,20.39l97.38 97.9c3.39,3.77 28.85,36.58 29.71,38.41 21.59,46.03 -34.81,146.68 30.72,196.76 67.94,51.88 174.7,31.07 225.8,-34.3 22.57,-28.88 24.43,-61.37 32.48,-74.05 198.93,-21.38 168.47,-260.13 2.33,-260.13 -139.18,0 -54.52,95.03 -208.44,-69.4 -111.03,-118.61 -16.83,-75.41 -16.83,-185.91 0,-130.85 -138.39,-200.27 -256.64,-106.46 -26.05,20.66 -28.58,40.7 -42.27,73.26 -68.07,-0.27 -107.37,20.69 -115.13,24.6 -37.64,18.97 -74.05,54.01 -74.05,121.23z"/>
    <path class="fil0" d="M4244.26 249.8c140.78,-102.42 403.39,-241.03 588.15,-206.17 84.35,15.92 17.77,-43.2 -49.06,-43.2 -130.27,-5.86 -391,48.06 -591.06,233.16 -73.12,67.64 12.82,40.9 51.97,16.21z"/>
    <path class="fil0" d="M4435.09 228.16c61.22,-15.77 142.15,-64.11 238.92,-81.75 57.43,-10.48 118.49,-51.65 30.21,-53.88 -82.98,-2.09 -190.56,39.04 -251.09,73.29 -13.68,7.74 -26.03,14.36 -35.37,24.16 -25.46,26.72 -28.36,49.92 17.33,38.18z"/>
    <path class="fil0" d="M5610.07 888.99l37.71 1.16c7.29,-51.94 42.49,-139.27 86.19,-225.33 46.23,-91.02 102.09,-180.87 144.58,-226.06 36.95,-39.3 75.49,-63.77 113.32,-73.82 40.18,-10.68 79.51,-5.16 115.29,16.01 35.43,20.96 67.33,57.3 93.08,108.44 44.35,88.11 70.59,220.61 65.2,394.53 -2.38,76.7 -9.05,117.62 -13.37,144.28 -7.57,46.51 -7.82,48.12 37.58,128.76 66.61,118.3 84.72,216.61 98.49,291.3 10.54,57.29 18.51,100.46 43.87,127.09l18.24 18.85c48.55,49.76 83.38,85.5 80.9,169.05 0.13,2.3 -1.44,4.42 -3.77,4.87 -16.42,3.29 -20.49,5.29 -30.71,10.4l-1.47 0.74c8.26,13 16.52,25.05 25.91,36.21 10.33,12.3 22.06,23.57 36.68,33.93 58.56,41.52 86.51,73.5 92.66,108.62 6.16,35.08 -9.53,72.28 -38.25,124.55 -0.76,1.59 -2.37,2.69 -4.24,2.69l-53.1 0c-0.7,0 -1.42,-0.16 -2.09,-0.5 -2.32,-1.15 -3.26,-3.97 -2.1,-6.29 4.42,-8.86 9.68,-17.79 14.91,-26.71 28.54,-48.58 57.32,-97.57 -50.45,-159.1 -26.28,-15 -35.72,-32.04 -43.67,-46.4 -8.61,-15.58 -15.32,-27.65 -44.3,-28.56 -36.76,0.25 -74.91,6.48 -110.08,-6.17 -8.1,-2.91 -14.5,-5.21 -32.3,-5.76 -27.11,-0.84 -49.24,19.57 -68.83,37.62 -12.61,11.63 -24.26,22.38 -36.21,26.8 -3.75,1.39 -9.14,2.33 -15.63,3.48 -26.29,4.63 -72.52,12.8 -74.11,64.1 -1.46,47.25 3.16,75.25 12.48,94.76 9.1,19.08 23.09,30.42 40.37,44.06 1.31,0.83 2.18,2.3 2.18,3.96 0,2.59 -2.1,4.69 -4.69,4.69l-69.34 0c-1.46,-0.01 -2.91,-0.7 -3.81,-1.97l-4.06 -5.97 -4.29 -6.75c-10.07,-16.36 -18.31,-31.89 -23.83,-49.59 -5.54,-17.74 -8.35,-37.61 -7.59,-62.56 3.06,-98.46 57.76,-118.93 102.38,-135.61 14.02,-5.24 27.03,-10.11 36.57,-16.94l18.65 -13.43c33.63,-24.31 48.96,-35.39 69.54,-39.86 16.99,-3.71 36.91,-2.67 73.42,-0.77 16.79,0.87 37.13,1.93 62.03,2.79 -3.97,-5.8 -7.91,-10.98 -11.44,-15.62l-0.2 -0.24c-8.41,-11.04 -14.7,-19.34 -14.49,-26.51 0.41,-13.48 21.76,-17.53 89.77,-15.72 -2.7,-6.88 -4.41,-12.53 -5.92,-17.56 -12.53,-41.72 -49.31,-61.61 -89.76,-66.23 -2.39,-0.27 -4.21,-2.33 -4.14,-4.78 0.99,-31.73 -3.62,-69.3 -10.03,-105.43 -6.48,-36.47 -14.74,-71.15 -21.05,-97.18 -6.77,-27.88 -15.79,-57.14 -25.93,-85.61 -11.16,-31.38 -23.67,-61.73 -35.97,-88.25 -18.65,-40.2 -33.63,-63.03 -44.84,-80.12 -18.49,-28.19 -27.18,-41.44 -25.99,-88.97 0.84,-33.65 3.21,-69.23 5.65,-106.24 10.31,-156.1 22.36,-338.33 -69.93,-485.88 -53.88,-86.15 -117.21,-68.59 -172.86,-18.82 -57.32,51.28 -106.89,136.16 -130.86,180.46 -13.64,25.21 -27.17,52.12 -39.71,79.56 -11.44,25.02 -22.17,50.72 -31.52,76.22l-66.15 162.54c-0.72,1.76 -2.48,2.98 -4.49,2.92l-31.53 -0.99c-199.04,-6.29 -388.88,-12.3 -584.24,26.86 -2.47,0.49 -4.91,-1.07 -5.48,-3.54 -4.46,-19.08 -19.48,-42.87 -32.31,-63.23 -4.06,-6.44 -7.94,-12.57 -11.14,-18.01 -24.01,-40.79 -37.28,-64.75 -46.94,-82.22 -21.42,-38.71 -25.11,-45.39 -91.61,-136.7 -33.97,-46.63 -75.76,-93.76 -125.01,-129.64 -41.12,-29.95 -145.1,-95.63 -177.04,-36.22 -8.62,16.01 -18.68,34.64 -32.56,107.96 -11.96,63.21 -19.5,152.11 -18.73,237.62 0.67,72.93 7.38,143.35 22.56,193.08 14.68,48.11 56.11,129.15 63.64,166.35 0.5,1.92 -0.29,4.03 -2.06,5.14 -19.78,12.36 -36.67,28.03 -57.17,40.51 6.88,8.84 13.52,13.24 22.05,18.9 3.33,2.21 6.95,4.61 10.53,7.17 1.24,0.91 2.02,2.4 1.95,4.05 -2.11,39.46 -20.11,64.98 -25.28,100.68 40.85,11.18 62.84,22.43 74.49,43.69l0.16 0.27c11.49,21.2 12.07,51.54 10.6,101.34 30.63,8.51 54.82,20.08 76.1,34.6 21.88,14.93 40.7,33.06 60.35,54.28l0.29 0.29c6.79,7.33 13.65,13.63 20.31,19.75 12.48,11.46 24.42,22.44 34.68,38.71l0.17 0.25c4.85,7.72 12.73,22.52 16.61,36.69l0.06 0.22c2.09,7.72 3.01,15.37 1.76,21.84 -1.43,7.27 -5.46,13.03 -13.27,15.94 -3.6,1.35 -8.02,2.01 -13.33,1.85 -20.59,-0.64 -32.43,-21.4 -43.56,-40.97 -4.28,-7.51 -8.46,-14.88 -12.84,-20.44 -21.26,-27.06 -55.33,-56.75 -91.3,-81.63 -36.04,-24.94 -73.91,-44.99 -102.65,-52.64 -2.09,-0.5 -3.62,-2.42 -3.57,-4.66 0.59,-19.05 2.74,-29.37 4.93,-39.9 2.21,-10.65 4.5,-21.6 5.14,-42.39 0.64,-20.57 -17.21,-23.35 -36.57,-26.36 -9.8,-1.53 -19.97,-3.11 -29.05,-6.82 -21.15,-8.64 -32.88,-17.79 -41.89,-24.82 -18.99,-14.81 -24.52,-19.12 -99.74,20.48 -10.24,5.39 -20.45,8.76 -30.4,12.03 -40.01,13.19 -76.04,25.07 -80.64,173.3 -1.81,58.74 11.05,68.05 47.17,94.15 7.83,5.65 16.73,12.08 27.02,20.1 42.3,32.96 57.87,91.09 74.54,153.29 6.98,26.06 14.17,52.87 23.56,78.64 6.17,16.94 12.82,30.67 19.22,43.87 9.33,19.24 18.18,37.49 24.49,63.22 0.17,0.48 0.26,0.99 0.26,1.53 0,2.59 -2.1,4.69 -4.69,4.69l-54.15 0c-1.95,-0.01 -3.78,-1.24 -4.43,-3.19l-79.73 -233.83c-13.81,-48.23 -23.3,-54.65 -44.28,-68.43l-0.31 -0.19c-9.42,-6.18 -21.03,-13.81 -36.13,-26.76l-5.86 -5.29c-50.54,-48.1 -54.75,-118.45 -42.61,-181.07 12.01,-61.92 40.22,-116.54 55.07,-133.99l1.85 -2.06c15.23,-16 36.13,-24.14 57.73,-32.56 9.04,-3.51 18.22,-7.11 27.18,-11.37l14.39 -6.93c48.79,-23.66 68.66,-33.27 140.09,-14.87 3.56,-12.95 7.42,-24.56 13.34,-36.63 -6.02,-2.46 -14.53,-5.03 -23.61,-7.35 -13.35,-3.4 -27.86,-6.23 -37.64,-7.34 -2.39,-0.27 -4.21,-2.33 -4.14,-4.78 0.89,-28.89 7.9,-52.01 22.42,-69.78 13.79,-16.86 34.22,-28.76 62.44,-36.05 -2.64,-9.86 -7.85,-22 -14.23,-36.9 -11.6,-27.09 -27.03,-63.12 -38.63,-111.92 -22.72,-95.51 -19.27,-185.79 -15.58,-282.41l1.74 -48.38c3.72,-119.92 23.17,-198.28 53.01,-244.87 25.3,-39.5 58.06,-56.49 95.08,-56.68 36.42,-0.2 76.79,16.02 118.1,43 100.73,65.81 208.05,196.18 277.29,307.35 15.82,25.41 30.44,49.89 44.86,74.05 14.22,23.82 28.28,47.38 43.12,71.19 23.82,-8.48 84,-15.78 151.9,-21.2 95.43,-7.62 206.67,-11.66 253.03,-10.17l100.64 3.14zm-594.64 494.14c-20.46,-11.87 -35.77,-38.18 -34.46,-80.74 0.99,-31.89 15.24,-50.14 34.01,-57.59 8.14,-3.24 17.06,-4.39 26.06,-3.73 8.88,0.64 17.94,3.09 26.41,7.05 24.1,11.27 43.66,35.06 42.71,65.74 -1.11,35.94 -19.11,60.33 -41.28,70.85 -8.56,4.06 -17.79,6.06 -26.91,5.85 -9.2,-0.21 -18.31,-2.64 -26.55,-7.43zm589.2 -49.35c-19.71,-35.06 -21.26,-83.53 7.52,-113.91 12.54,-13.25 29.11,-21.89 45.31,-21.39 30.27,0.94 52.25,26.8 61.53,57.9 3.28,10.99 4.99,22.71 4.92,34.18 -0.08,11.57 -1.98,22.93 -5.86,33.13 -9.45,24.75 -30.45,42.85 -65.73,41.75 -21.29,-0.66 -37.3,-13.16 -47.7,-31.65zm-285.44 264.92c-1.22,39.93 3.5,78.94 12.45,117.82 12.4,53.75 54.16,91.35 97.7,108.85 27.05,10.87 65.82,17.55 92.24,1.77 13.52,-8.07 22.26,-21.76 22.86,-41.48 1.36,-43.68 -26.64,-89.57 -48.63,-125.62 -21.04,-34.5 -35.61,-64.14 -48.14,-103.04 -8.49,-26.35 -12.36,-38.37 -43.03,-47.66l-0.12 15.18c-0.08,64.44 -64.35,70.34 -62.25,-2.05l-4.67 0.98c-16.84,3.5 -16.51,59.35 -18.39,75.26zm-13.7 -195.03c-74.69,-40.21 -89.48,-126.81 -9.35,-163.85 28.17,-13.02 63.02,-20.55 90.21,-19.71 52.99,1.63 84.32,21.93 98.62,48.68 13.4,25.11 11.43,55.26 -0.44,80.53 -14.5,30.85 -44.34,56.22 -83.17,60.3 18.78,78.28 141.47,106.31 145.82,10.51 0.53,-11.57 0.92,-19.69 10.39,-28.86 4.36,-4.23 9.38,-5.99 14.59,-5.84 3.86,0.11 7.76,1.33 11.48,3.37 3.5,1.92 6.92,4.62 10.02,7.82 9.47,9.76 16.52,24.75 16.12,37.92 -2.07,66.8 -49.96,85.91 -80.31,98.01 -11.92,4.75 -20.66,8.26 -20.76,11.57 -0.96,31.48 18.14,58.47 39.49,88.66 28.22,39.88 60.29,85.21 58.14,154.75 -1.3,42.15 -26.74,73.51 -63.31,90.57 -45.88,21.43 -102.23,17.99 -147.9,-2.2 -61.27,-27.09 -115.52,-88.16 -128.91,-192.03l-5.84 -111.72c-0.8,-14.07 -12.99,-18.45 -29.52,-24.38 -13.65,-4.89 -29.97,-10.76 -46.09,-23.37 -12.7,-9.94 -27.15,-31.25 -33.83,-53.02 -3.47,-11.28 -4.93,-22.8 -3.12,-33.11 1.89,-10.78 7.29,-20.23 17.49,-26.81 9.54,-6.15 23.3,-9.64 42.36,-9.08 -2.09,24.3 10.42,90.23 53.41,90.21 21.76,-0.02 47.07,-9.44 61.87,-74.38 0.15,-5.05 -7.35,-9.1 -17.45,-14.54zm473.78 -518.54c-2.23,71.77 -7.85,99.47 95.76,128.02 244.01,67.21 259.52,64.11 267.04,-178.11 2.45,-78.87 -12.17,-197.82 -42.07,-266.51 -33.92,-77.93 -62.29,-90.96 -143.8,-16.54 -68.82,82.53 -173.63,226.67 -176.93,333.15zm-1207.25 -53.73c-8.42,271.28 -8.18,381.23 268.17,238.82 45.13,-23.25 131.99,-60.75 133.87,-121.17 2.28,-73.49 -149.32,-254.4 -198.01,-294.83 -54.11,-44.93 -139.2,-140.47 -182.46,21.81 -12.08,45.3 -19.91,101.93 -21.57,155.37z"/>
    <path class="fil0" d="M5470.84 485.91l-8.1 36.6 -5.56 0.49c-5.33,0.47 -36.02,-9.11 -44.39,-11.2 -41.77,-8.03 -75.61,-13.57 -117.09,-18.64 -5.55,-0.46 -29.94,-4.18 -52.96,-7.94 -20.25,-3.31 -39.62,-6.73 -44.48,-8.07 -3.89,-1.07 -7.97,-2.07 -12.13,-3.07 -9.89,-2.39 -20.28,-4.92 -30.08,-8.97 -17.23,-7.13 -32.03,-16.67 -44.18,-27.87 -19.21,-17.72 -31.88,-39.65 -37.29,-63.03 -5.43,-23.41 -3.59,-48.28 6.18,-71.85 5.78,-13.95 14.34,-27.45 25.8,-39.87 19.89,-21.57 44.07,-36.26 69.27,-43.83 26.23,-7.87 53.66,-8.05 78.61,-0.33 7.01,2.15 15.18,6.24 22.62,9.93l6.22 3.09c-0.1,-2.6 -0.1,-5.26 -0.02,-7.92 0.26,-9.34 1.45,-18.84 2.69,-26.18 4.2,-25.1 18.07,-49.66 37.68,-69.49 19.32,-19.57 44.42,-34.63 71.4,-41.11l0.61 -0.17c38.71,-9.15 72.63,-2.62 98.94,14.52 26.26,17.11 44.78,44.76 52.73,77.85l0.14 0.55c3.36,14.21 4.31,28.74 3.71,42.77 -0.72,17.03 -3.74,33.28 -7.47,47.36l-2.06 7.95c-2.82,11.29 -6.18,24.55 -10.58,34.33 -17.21,45.43 -36.86,91.83 -50.69,137.9 -3.58,11.94 -6.72,24.1 -9.55,36.2zm-72.69 -334.06c-3.25,-0.02 -9.03,1.76 -15.31,4.26 -8.47,3.37 -17.48,7.98 -23.04,11.47 -6.16,3.88 -11.98,8.53 -17.13,13.5 -5.48,5.27 -10.2,10.9 -13.83,16.32 -4.87,7.3 -9.1,15.92 -12.02,24.79 -6.49,19.72 -0.72,35.51 -8.81,52 -16.4,-4.18 -12.84,-7.11 -27.96,-13.87 -18.96,-8.47 -41.11,-8.68 -62.27,-2.31 -21.41,6.45 -41.74,19.66 -56.73,37.92 -6.16,7.5 -11.43,15.88 -15.49,24.96 -4.88,10.95 -6.67,23.46 -5.72,35.73 0.97,12.6 4.87,24.9 11.27,35.01 10.55,16.66 24.68,27.36 39.45,34.41 15.17,7.24 31.09,10.74 44.71,12.92 7.56,1.22 14.27,2.47 20.79,3.69 13.47,2.52 26.25,4.92 40.59,5.89 37.54,4.41 76.82,12.5 114.54,18.02 3.26,0.77 6.91,1.98 10.53,3.19l6.9 2.14 1.59 -6.77c3.35,-14.17 8.6,-34.45 13.41,-47.76 16.19,-38.45 34.75,-82.89 47,-123.41 2.12,-7.02 3.98,-14.12 5.74,-21.09 6.37,-25.25 5.62,-51.88 -3.64,-74.06 -8.04,-19.27 -22.66,-35.27 -44.76,-44 -6.37,-2.52 -14.33,-4.04 -22.59,-4.58 -8.78,-0.58 -17.85,-0.06 -25.74,1.5l-1.49 0.12z"/>
   </g>
  </g>
 </g>
</svg>
